<svg xmlns="http://www.w3.org/2000/svg" xmlns:xlink="http://www.w3.org/1999/xlink" id="processonSvg1000" viewBox="326.0 53.0 497.5 674.0" width="497.5" height="674.0"><defs id="ProcessOnDefs1001"><marker id="ProcessOnMarker1041" markerUnits="userSpaceOnUse" orient="auto" markerWidth="16.23606797749979" markerHeight="10.550836550532098" viewBox="-1.0 -1.3763819204711736 16.23606797749979 10.550836550532098" refX="-1.0" refY="3.8990363547948754"><path id="ProcessOnPath1042" d="M12.0 3.8990363547948754L0.0 7.798072709589751V0.0Z" stroke="#323232" stroke-width="2.0" fill="#323232" transform="matrix(1.0,0.0,0.0,1.0,0.0,0.0)"/></marker><marker id="ProcessOnMarker1045" markerUnits="userSpaceOnUse" orient="auto" markerWidth="16.23606797749979" markerHeight="10.550836550532098" viewBox="-1.0 -1.3763819204711736 16.23606797749979 10.550836550532098" refX="-1.0" refY="3.8990363547948754"><path id="ProcessOnPath1046" d="M12.0 3.8990363547948754L0.0 7.798072709589751V0.0Z" stroke="#323232" stroke-width="2.0" fill="#323232" transform="matrix(1.0,0.0,0.0,1.0,0.0,0.0)"/></marker><marker id="ProcessOnMarker1049" markerUnits="userSpaceOnUse" orient="auto" markerWidth="16.23606797749979" markerHeight="10.550836550532098" viewBox="-1.0 -1.3763819204711736 16.23606797749979 10.550836550532098" refX="-1.0" refY="3.8990363547948754"><path id="ProcessOnPath1050" d="M12.0 3.8990363547948754L0.0 7.798072709589751V0.0Z" stroke="#323232" stroke-width="2.0" fill="#323232" transform="matrix(1.0,0.0,0.0,1.0,0.0,0.0)"/></marker><marker id="ProcessOnMarker1053" markerUnits="userSpaceOnUse" orient="auto" markerWidth="16.23606797749979" markerHeight="10.550836550532098" viewBox="-1.0 -1.3763819204711736 16.23606797749979 10.550836550532098" refX="-1.0" refY="3.8990363547948754"><path id="ProcessOnPath1054" d="M12.0 3.8990363547948754L0.0 7.798072709589751V0.0Z" stroke="#323232" stroke-width="2.0" fill="#323232" transform="matrix(1.0,0.0,0.0,1.0,0.0,0.0)"/></marker></defs><g id="ProcessOnG1002"><path id="ProcessOnPath1003" d="M326.0 53.0H823.5V727.0H326.0V53.0Z" fill="none"/><g id="ProcessOnG1004"><g id="ProcessOnG1005" transform="matrix(1.0,0.0,0.0,1.0,361.0,217.0)" opacity="1.0"><path id="ProcessOnPath1006" d="M0.0 0.0L435.0 0.0L435.0 299.0L0.0 299.0Z" stroke="#323232" stroke-width="2.0" stroke-dasharray="none" opacity="1.0" fill="#ffffff"/></g><g id="ProcessOnG1007" transform="matrix(1.0,0.0,0.0,1.0,395.0,128.0)" opacity="1.0"><path id="ProcessOnPath1008" d="M6.6000000000000005 0.0L13.4 0.0L13.4 79.0L20.0 79.0L10.0 89.0L0.0 79.0L6.6000000000000005 79.0L6.6000000000000005 0.0Z" stroke="#323232" stroke-width="2.0" stroke-dasharray="none" opacity="1.0" fill="#ffffff"/></g><g id="ProcessOnG1009" transform="matrix(1.0,0.0,0.0,1.0,464.5,128.0)" opacity="1.0"><path id="ProcessOnPath1010" d="M6.6000000000000005 0.0L13.4 0.0L13.4 79.0L20.0 79.0L10.0 89.0L0.0 79.0L6.6000000000000005 79.0L6.6000000000000005 0.0Z" stroke="#323232" stroke-width="2.0" stroke-dasharray="none" opacity="1.0" fill="#ffffff"/></g><g id="ProcessOnG1011" transform="matrix(1.0,0.0,0.0,1.0,746.5,128.0)" opacity="1.0"><path id="ProcessOnPath1012" d="M6.6000000000000005 0.0L13.4 0.0L13.4 79.0L20.0 79.0L10.0 89.0L0.0 79.0L6.6000000000000005 79.0L6.6000000000000005 0.0Z" stroke="#323232" stroke-width="2.0" stroke-dasharray="none" opacity="1.0" fill="#ffffff"/></g><g id="ProcessOnG1013" transform="matrix(1.0,0.0,0.0,1.0,612.5,128.0)" opacity="1.0"><path id="ProcessOnPath1014" d="M6.6000000000000005 0.0L13.4 0.0L13.4 79.0L20.0 79.0L10.0 89.0L0.0 79.0L6.6000000000000005 79.0L6.6000000000000005 0.0Z" stroke="#323232" stroke-width="2.0" stroke-dasharray="none" opacity="1.0" fill="#ffffff"/></g><g id="ProcessOnG1015" transform="matrix(1.0,0.0,0.0,1.0,536.5,128.0)" opacity="1.0"><path id="ProcessOnPath1016" d="M6.6000000000000005 0.0L13.4 0.0L13.4 79.0L20.0 79.0L10.0 89.0L0.0 79.0L6.6000000000000005 79.0L6.6000000000000005 0.0Z" stroke="#323232" stroke-width="2.0" stroke-dasharray="none" opacity="1.0" fill="#ffffff"/></g><g id="ProcessOnG1017" transform="matrix(1.0,0.0,0.0,1.0,683.5,128.0)" opacity="1.0"><path id="ProcessOnPath1018" d="M6.6000000000000005 0.0L13.4 0.0L13.4 79.0L20.0 79.0L10.0 89.0L0.0 79.0L6.6000000000000005 79.0L6.6000000000000005 0.0Z" stroke="#323232" stroke-width="2.0" stroke-dasharray="none" opacity="1.0" fill="#ffffff"/></g><g id="ProcessOnG1019" transform="matrix(1.0,0.0,0.0,1.0,498.5,73.0)" opacity="1.0"><path id="ProcessOnPath1020" d="M0.0 0.0L160.0 0.0L160.0 40.0L0.0 40.0Z" stroke="none" stroke-width="0.0" stroke-dasharray="none" opacity="1.0" fill="none"/><g id="ProcessOnG1021" transform="matrix(1.0,0.0,0.0,1.0,0.0,8.125)"><text id="ProcessOnText1022" fill="#000000" font-size="19" x="79.0" y="19.475" font-family="微软雅黑" font-weight="bold" font-style="normal" text-decoration="none" family="微软雅黑" text-anchor="middle" size="19">客户端</text></g></g><g id="ProcessOnG1023" transform="matrix(1.0,0.0,0.0,1.0,395.0,237.0)" opacity="1.0"><path id="ProcessOnPath1024" d="M0.0 0.0L367.0 0.0L367.0 74.0L0.0 74.0Z" stroke="#323232" stroke-width="2.0" stroke-dasharray="none" opacity="1.0" fill="#ffffff"/><g id="ProcessOnG1025" transform="matrix(1.0,0.0,0.0,1.0,10.0,25.125)"><text id="ProcessOnText1026" fill="#000000" font-size="19" x="172.5" y="19.475" font-family="微软雅黑" font-weight="bold" font-style="normal" text-decoration="none" family="微软雅黑" text-anchor="middle" size="19">连接/线程处理</text></g></g><g id="ProcessOnG1027" transform="matrix(1.0,0.0,0.0,1.0,395.0,354.0)" opacity="1.0"><path id="ProcessOnPath1028" d="M0.0 0.0L100.0 0.0L100.0 70.0L0.0 70.0Z" stroke="#323232" stroke-width="2.0" stroke-dasharray="none" opacity="1.0" fill="#ffffff"/><g id="ProcessOnG1029" transform="matrix(1.0,0.0,0.0,1.0,10.0,23.125)"><text id="ProcessOnText1030" fill="#000000" font-size="19" x="39.0" y="19.475" font-family="微软雅黑" font-weight="bold" font-style="normal" text-decoration="none" family="微软雅黑" text-anchor="middle" size="19">查询缓存</text></g></g><g id="ProcessOnG1031" transform="matrix(1.0,0.0,0.0,1.0,662.0,354.0)" opacity="1.0"><path id="ProcessOnPath1032" d="M0.0 0.0L100.0 0.0L100.0 70.0L0.0 70.0Z" stroke="#323232" stroke-width="2.0" stroke-dasharray="none" opacity="1.0" fill="#ffffff"/><g id="ProcessOnG1033" transform="matrix(1.0,0.0,0.0,1.0,10.0,23.125)"><text id="ProcessOnText1034" fill="#000000" font-size="19" x="39.0" y="19.475" font-family="微软雅黑" font-weight="bold" font-style="normal" text-decoration="none" family="微软雅黑" text-anchor="middle" size="19">解析器</text></g></g><g id="ProcessOnG1035" transform="matrix(1.0,0.0,0.0,1.0,395.0,447.0)" opacity="1.0"><path id="ProcessOnPath1036" d="M0.0 0.0L367.0 0.0L367.0 59.0L0.0 59.0Z" stroke="#323232" stroke-width="2.0" stroke-dasharray="none" opacity="1.0" fill="#ffffff"/><g id="ProcessOnG1037" transform="matrix(1.0,0.0,0.0,1.0,10.0,17.625)"><text id="ProcessOnText1038" fill="#000000" font-size="19" x="172.5" y="19.475" font-family="微软雅黑" font-weight="bold" font-style="normal" text-decoration="none" family="微软雅黑" text-anchor="middle" size="19">优化器</text></g></g><g id="ProcessOnG1039"><path id="ProcessOnPath1040" d="M712.0 424.0L712.0 435.5L578.5 435.5L578.5 436.5" stroke="#323232" stroke-width="2.0" stroke-dasharray="none" fill="none" marker-end="url(#ProcessOnMarker1041)"/></g><g id="ProcessOnG1043"><path id="ProcessOnPath1044" d="M662.0 389.0L578.5 389.0L578.5 389.0L510.2360679774998 389.0" stroke="#323232" stroke-width="2.0" stroke-dasharray="none" fill="none" marker-end="url(#ProcessOnMarker1045)"/></g><g id="ProcessOnG1047"><path id="ProcessOnPath1048" d="M578.5 311.0L578.5 332.5L445.0 332.5L445.0 338.7639320225002" stroke="#323232" stroke-width="2.0" stroke-dasharray="none" fill="none" marker-end="url(#ProcessOnMarker1049)"/></g><g id="ProcessOnG1051"><path id="ProcessOnPath1052" d="M578.5 311.0L578.5 332.5L726.0 332.5L726.0 338.7639320225002" stroke="#323232" stroke-width="2.0" stroke-dasharray="none" fill="none" marker-end="url(#ProcessOnMarker1053)"/></g><g id="ProcessOnG1055" transform="matrix(-1.8369701987210297E-16,-1.0,1.0,-1.8369701987210297E-16,361.0,635.0)" opacity="1.0"><path id="ProcessOnPath1056" d="M15.0 0.0L88.33333333333333 0.0C103.18181818181819 0.0 103.18181818181819 70.0 88.33333333333333 70.0L15.0 70.0C-5.0 70.0 -5.0 0.0 15.0 0.0ZM88.33333333333333 0.0C73.75 0.0 73.75 70.0 88.33333333333333 70.0C73.75 70.0 73.75 0.0 88.33333333333333 0.0" stroke="#323232" stroke-width="2.0" stroke-dasharray="none" opacity="1.0" fill="#b8b8b8"/></g><g id="ProcessOnG1057" transform="matrix(-1.8369701987210297E-16,-1.0,1.0,-1.8369701987210297E-16,474.5,638.0)" opacity="1.0"><path id="ProcessOnPath1058" d="M15.0 0.0L88.33333333333333 0.0C103.18181818181819 0.0 103.18181818181819 70.0 88.33333333333333 70.0L15.0 70.0C-5.0 70.0 -5.0 0.0 15.0 0.0ZM88.33333333333333 0.0C73.75 0.0 73.75 70.0 88.33333333333333 70.0C73.75 70.0 73.75 0.0 88.33333333333333 0.0" stroke="#323232" stroke-width="2.0" stroke-dasharray="none" opacity="1.0" fill="#a1a1a1"/></g><g id="ProcessOnG1059" transform="matrix(-1.8369701987210297E-16,-1.0,1.0,-1.8369701987210297E-16,598.5,638.0)" opacity="1.0"><path id="ProcessOnPath1060" d="M15.0 0.0L88.33333333333333 0.0C103.18181818181819 0.0 103.18181818181819 70.0 88.33333333333333 70.0L15.0 70.0C-5.0 70.0 -5.0 0.0 15.0 0.0ZM88.33333333333333 0.0C73.75 0.0 73.75 70.0 88.33333333333333 70.0C73.75 70.0 73.75 0.0 88.33333333333333 0.0" stroke="#323232" stroke-width="2.0" stroke-dasharray="none" opacity="1.0" fill="#e5e5e5"/></g><g id="ProcessOnG1061" transform="matrix(-1.8369701987210297E-16,-1.0,1.0,-1.8369701987210297E-16,718.5,635.0)" opacity="1.0"><path id="ProcessOnPath1062" d="M15.0 0.0L88.33333333333333 0.0C103.18181818181819 0.0 103.18181818181819 70.0 88.33333333333333 70.0L15.0 70.0C-5.0 70.0 -5.0 0.0 15.0 0.0ZM88.33333333333333 0.0C73.75 0.0 73.75 70.0 88.33333333333333 70.0C73.75 70.0 73.75 0.0 88.33333333333333 0.0" stroke="#323232" stroke-width="2.0" stroke-dasharray="none" opacity="1.0" fill="#e5e5e5"/></g><g id="ProcessOnG1063" transform="matrix(1.0,0.0,0.0,1.0,498.5,667.0)" opacity="1.0"><path id="ProcessOnPath1064" d="M0.0 0.0L160.0 0.0L160.0 40.0L0.0 40.0Z" stroke="none" stroke-width="0.0" stroke-dasharray="none" opacity="1.0" fill="none"/><g id="ProcessOnG1065" transform="matrix(1.0,0.0,0.0,1.0,0.0,8.125)"><text id="ProcessOnText1066" fill="#000000" font-size="19" x="79.0" y="19.475" font-family="微软雅黑" font-weight="bold" font-style="normal" text-decoration="none" family="微软雅黑" text-anchor="middle" size="19">存储引擎</text></g></g></g></g></svg>